<svg height="32" viewBox="0 0 88.928 32" width="88.928" xmlns="http://www.w3.org/2000/svg"><g fill="#fff"><path d="m60.479 14.031c-1.373-.254-2.949-.305-3.762-1.219a1.512 1.512 0 0 1 -.154-1.525 3.191 3.191 0 0 1 3.254-1.374 2.9 2.9 0 0 1 2.694 1.627 3.846 3.846 0 0 1 .305 1.323h3.764a5.7 5.7 0 0 0 -1.48-3.963 8.7 8.7 0 0 0 -7.318-1.983c-1.831.254-4.271 1.321-5.086 3.712a4.79 4.79 0 0 0 1.373 5.337c1.729 1.323 4.982 1.679 6.305 1.985 1.524.3 2.288.508 2.541 1.371a1.948 1.948 0 0 1 -.249 1.678c-.967 1.27-2.949 1.373-4.526.915-1.322-.405-1.882-1.475-2.135-2.9h-3.964a5.823 5.823 0 0 0 1.067 3.306 6.458 6.458 0 0 0 4.626 2.847 10.642 10.642 0 0 0 6.406-.714 7.447 7.447 0 0 0 2.084-1.881 5.555 5.555 0 0 0 .253-5.794c-1.118-1.934-3.659-2.341-5.998-2.748z" transform="translate(3.469 .453)"/><path d="m48.552 9.306a8.151 8.151 0 0 0 -7.319-2.442 7.953 7.953 0 0 0 -5.643 3.865 11.443 11.443 0 0 0 -1.323 3.763c-.407 3.1.458 8.286 5.9 10.32a8.849 8.849 0 0 0 8.185-1.169 8.051 8.051 0 0 0 2.847-4.73h-4.527a3.587 3.587 0 0 1 -1.322 2.034 4.181 4.181 0 0 1 -4.83-.2c-1.373-1.017-1.829-2.693-1.881-5.084 0-1.27.356-3.3 1.423-4.27a4.2 4.2 0 0 1 3.967-.814 3.71 3.71 0 0 1 2.491 3.558h-6.407v3.2h11.087a12.111 12.111 0 0 0 -.305-3.356 11.886 11.886 0 0 0 -2.343-4.675z" transform="translate(2.278 .451)"/><path d="m83.837 20.426v-5.491a22.451 22.451 0 0 0 -.355-4.169c-.305-1.322-1.475-3.508-5.237-3.966-.7-.05-1.45-.05-2.2-.05h-.034a11.965 11.965 0 0 0 -3.626.659 5.612 5.612 0 0 0 -3.358 5.391h4.066a2.642 2.642 0 0 1 1.577-2.541 3.651 3.651 0 0 1 1.372-.259 3.714 3.714 0 0 1 2.71.867 1.778 1.778 0 0 1 .46 1.728c-.255 1.068-1.424 1.423-3.2 1.678v.005c-.6.1-1.3.149-2.047.249-2.135.254-5.186 1.322-5.9 4.423a5.1 5.1 0 0 0 1.829 4.93 7.328 7.328 0 0 0 4.423 1.374 9.161 9.161 0 0 0 1.73-.153v-.009a8.437 8.437 0 0 0 3.572-1.822 5.624 5.624 0 0 0 .508 1.475h4.273a10.243 10.243 0 0 1 -.563-4.319zm-4.576-.66a3.639 3.639 0 0 1 -3.253 2.083v.006a3.222 3.222 0 0 1 -.98.044 2.409 2.409 0 0 1 -2.237-1.27 2.058 2.058 0 0 1 .1-1.983c.61-1.067 1.678-1.27 3.153-1.575v-.005a10.229 10.229 0 0 0 1.488-.3 4.043 4.043 0 0 0 1.931-.864 20.277 20.277 0 0 1 -.202 3.863z" transform="translate(4.531 .45)"/><path d="m21.837 26.2c-7.205-2.487-8.539-9.153-6.742-13.82a8.381 8.381 0 0 1 12.431-3.718c4.361 3.127 3.9 9.126 3.9 9.126h-11.179v-3.2h6.486a3.055 3.055 0 0 0 -.9-2.436 3.932 3.932 0 0 0 -4.845-.794c-1.257.666-2.871 3.435-1.923 7.408.9 3.017 3.726 4.215 6.27 4.214 3.789 0 6.658-2.638 6.663-6.958a16 16 0 1 0 -3.809 10.342 10.225 10.225 0 0 1 -6.352-.164zm-14.159-8.187a1.825 1.825 0 1 1 1.822-1.825 1.825 1.825 0 0 1 -1.822 1.825z"/></g></svg>